<?xml version="1.0" encoding="UTF-8" standalone="no"?>
<svg
   fill="#252525"
   viewBox="0 0 17 17"
   width="17"
   height="17"
   version="1.1"
   id="svg201"
   sodipodi:docname="icon.svg"
   inkscape:version="1.2.1 (9c6d41e, 2022-07-14)"
   xmlns:inkscape="http://www.inkscape.org/namespaces/inkscape"
   xmlns:sodipodi="http://sodipodi.sourceforge.net/DTD/sodipodi-0.dtd"
   xmlns="http://www.w3.org/2000/svg"
   xmlns:svg="http://www.w3.org/2000/svg">
  <defs
     id="defs205" />
  <sodipodi:namedview
     id="namedview203"
     pagecolor="#ffffff"
     bordercolor="#666666"
     borderopacity="1.0"
     inkscape:showpageshadow="2"
     inkscape:pageopacity="0.0"
     inkscape:pagecheckerboard="0"
     inkscape:deskcolor="#d1d1d1"
     showgrid="false"
     inkscape:zoom="13.882353"
     inkscape:cx="8.5"
     inkscape:cy="8.5"
     inkscape:window-width="1309"
     inkscape:window-height="456"
     inkscape:window-x="0"
     inkscape:window-y="38"
     inkscape:window-maximized="0"
     inkscape:current-layer="svg201" />
  <!-- Setting the background color -->
  <!-- Updated paths with fill="#FFFFFF" for white color -->
  <rect
     x="2.1440678"
     y="3.2966101"
     fill="#252525"
     width="60.000004%"
     height="50%"
     id="rect197" />
  <path
     fill="#252525"
     stroke="#ffffff"
     stroke-width="0.4"
     d="m 0.57627121,3.5762711 a 2,2 0 0 1 1.99999999,-2 H 14.576272 a 2,2 0 0 1 2,2 v 9.9999999 a 2,2 0 0 1 -2,2 H 2.5762712 a 2,2 0 0 1 -1.99999999,-2 z M 10.076272,9.0762707 H 7.0762712 a 0.5,0.5 0 0 0 0,1.0000003 h 3.0000008 a 0.5,0.5 0 0 0 0,-1.0000003 z m -6.3540008,-0.354 a 0.5006316,0.5006316 0 1 0 0.708,0.708 l 2,-2 a 0.5,0.5 0 0 0 0,-0.708 l -2,-2 a 0.5006316,0.5006316 0 1 0 -0.708,0.708 l 1.647,1.646 z"
     id="path199" />
</svg>
